# xmcd
#
# Track frame offsets:
#	150
#	20970
#	39747
#	54775
#	69716
#	87990
#	110404
#	124280
#	139621
#	161297
#
# Disc length: 2395 seconds
#
# Revision: 1
# Processed by: cddbd v1.5.2PL0 Copyright (c) Steve Scherf et al.
# Submitted via: audiograbber 1.83.01
#
DISCID=8709590a
DTITLE=амелос - 9 лецакес жымес тяацоудоум циа та паидиа
DYEAR=2009
DGENRE=
TTITLE0=окои йаи паидийг вояыдиа (памациытгс йаи ебима йаяека) - лиа еувг циа т
TTITLE0=а паидиа
TTITLE1=хелис адаламтидгс - амелос
TTITLE2=екемг дглоу - посо лоиафоуле
TTITLE3=мамтиа йаяациаммг йаи мийос йаяациаммгс - ема бгла ломо
TTITLE4=калпяос йаяекас - йаи ти дем ха дима
TTITLE5=еудойиа - жукко йаи жтеяо
TTITLE6=дглгтягс мефеяитгс - жуса бояиа лоу
TTITLE7=дглгтягс мефеяитгс - дем упаявеи циа сема хеос
TTITLE8=йатеяима йоуяелтфг - с ацапы
TTITLE9=аятелис - лиа жытоцяажиа
EXTD=
EXTT0=
EXTT1=
EXTT2=
EXTT3=
EXTT4=
EXTT5=
EXTT6=
EXTT7=
EXTT8=
EXTT9=
PLAYORDER=
